<mxfile host="app.diagrams.net" modified="2022-04-21T13:20:27.968Z" agent="5.0 (Windows NT 10.0; Win64; x64) AppleWebKit/537.36 (KHTML, like Gecko) Chrome/100.0.4896.127 Safari/537.36" etag="by68b9npWLHivX62ZbXd" version="17.4.6" type="github">
  <diagram id="C5RBs43oDa-KdzZeNtuy" name="Page-1">
    <mxGraphModel dx="790" dy="441" grid="1" gridSize="10" guides="1" tooltips="1" connect="1" arrows="1" fold="1" page="1" pageScale="1" pageWidth="827" pageHeight="1169" math="0" shadow="0">
      <root>
        <mxCell id="WIyWlLk6GJQsqaUBKTNV-0" />
        <mxCell id="WIyWlLk6GJQsqaUBKTNV-1" parent="WIyWlLk6GJQsqaUBKTNV-0" />
        <mxCell id="cyj-z0VjZUZghWz-tNcz-2" value="" style="group" vertex="1" connectable="0" parent="WIyWlLk6GJQsqaUBKTNV-1">
          <mxGeometry x="320" y="520" width="240" height="120" as="geometry" />
        </mxCell>
        <mxCell id="cyj-z0VjZUZghWz-tNcz-0" value="«interface»&lt;br&gt;&lt;b&gt;HandlerForUsers&lt;/b&gt;" style="html=1;" vertex="1" parent="cyj-z0VjZUZghWz-tNcz-2">
          <mxGeometry width="240" height="60" as="geometry" />
        </mxCell>
        <mxCell id="cyj-z0VjZUZghWz-tNcz-1" value="+ getPackageLocation(courierNumber)" style="rounded=0;whiteSpace=wrap;html=1;" vertex="1" parent="cyj-z0VjZUZghWz-tNcz-2">
          <mxGeometry y="60" width="240" height="60" as="geometry" />
        </mxCell>
      </root>
    </mxGraphModel>
  </diagram>
</mxfile>
